<?xml version="1.0" encoding="utf-8"?>
<!-- Generator: Adobe Illustrator 25.2.3, SVG Export Plug-In . SVG Version: 6.00 Build 0)  -->
<svg version="1.1" id="Layer_1" xmlns="http://www.w3.org/2000/svg" xmlns:xlink="http://www.w3.org/1999/xlink" x="0px" y="0px"
	 viewBox="0 0 218.4 137.6" style="enable-background:new 0 0 218.4 137.6;" xml:space="preserve">
<style type="text/css">
	.st0{fill:#65B32E;}
	.st1{fill:#FFFFFF;}
	.st2{fill:#EF7D00;}
</style>
<g>
	<path class="st0" d="M171.8,51.2h-26.7l3-3.8l23.7,0c0.4,0,0.8-0.3,0.7-0.8s-0.3-0.7-0.8-0.7h0l-24,0c-0.2,0-0.4,0.1-0.6,0.3l-4,5
		h-0.1h-24.8c-0.4,0-0.8,0.3-0.8,0.8s0.3,0.8,0.8,0.8h24.8h0.4h28.3c0.4,0,0.8-0.3,0.8-0.8S172.2,51.2,171.8,51.2z"/>
	<path class="st0" d="M162,42.3h-14.6l3.9-3.8l20.5,0l0-1.5L151,37c-0.2,0-0.4,0.1-0.5,0.2l-5.2,5.1h-13.1c-0.2,0-0.4,0.1-0.5,0.2
		l-9.1,8.9l1,1.1l8.9-8.7h13.1c0,0,0.1,0,0.1,0H162c0.4,0,0.8-0.3,0.8-0.8S162.4,42.3,162,42.3z"/>
	<path class="st0" d="M171.8,66.8l-21,0l-3.2-3.8h24.3c0.4,0,0.8-0.3,0.8-0.8s-0.3-0.8-0.8-0.8h-24.7l3.6-3.6h21
		c0.4,0,0.8-0.3,0.8-0.8s-0.3-0.8-0.8-0.8h-21.4c-0.1,0-0.2,0-0.3,0.1c-0.1,0-0.2,0.1-0.2,0.2l-4.2,4.2l-2.4-2.8
		c-0.1-0.2-0.4-0.3-0.6-0.3h-24.4c-0.4,0-0.8,0.3-0.8,0.8s0.3,0.8,0.8,0.8h24l7.5,8.8c0.1,0.2,0.3,0.3,0.6,0.3l21.4,0h0
		c0.4,0,0.8-0.3,0.8-0.7S172.2,66.8,171.8,66.8z"/>
</g>
<g>
	<g>
		<g>
			<path class="st1" d="M171.2,48.9c1.2,0,2.3-1,2.3-2.3c0-1.2-1-2.3-2.3-2.3c-1.2,0-2.3,1-2.3,2.3C169,47.9,170,48.9,171.2,48.9z"
				/>
			<path class="st0" d="M171.2,49.2c-1.4,0-2.6-1.1-2.6-2.6c0-1.4,1.1-2.6,2.6-2.6c1.4,0,2.6,1.1,2.6,2.6
				C173.8,48,172.6,49.2,171.2,49.2C169.8,49.2,172.6,49.2,171.2,49.2z M171.2,44.7c-1.1,0-2,0.9-2,2s0.9,2,2,2c1.1,0,2-0.9,2-2
				C173.2,45.6,172.3,44.7,171.2,44.7C170.2,44.7,172.3,44.7,171.2,44.7z"/>
		</g>
	</g>
	<g>
		<g>
			<path class="st1" d="M171.2,69.8c1.2,0,2.3-1,2.3-2.3s-1-2.3-2.3-2.3c-1.2,0-2.3,1-2.3,2.3S170,69.8,171.2,69.8z"/>
			<path class="st0" d="M171.2,70.1c-1.4,0-2.6-1.1-2.6-2.6c0-1.4,1.1-2.6,2.6-2.6c1.4,0,2.6,1.1,2.6,2.6S172.6,70.1,171.2,70.1
				C169.8,70.1,172.6,70.1,171.2,70.1z M171.2,65.5c-1.1,0-2,0.9-2,2c0,1.1,0.9,2,2,2c1.1,0,2-0.9,2-2
				C173.2,66.4,172.3,65.5,171.2,65.5C170.2,65.5,172.3,65.5,171.2,65.5z"/>
		</g>
	</g>
	<g>
		<g>
			<path class="st1" d="M171.2,40c1.2,0,2.3-1,2.3-2.3c0-1.2-1-2.3-2.3-2.3c-1.2,0-2.3,1-2.3,2.3C169,39,170,40,171.2,40z"/>
			<path class="st0" d="M171.2,40.3c-1.4,0-2.6-1.1-2.6-2.6c0-1.4,1.1-2.6,2.6-2.6c1.4,0,2.6,1.1,2.6,2.6S172.6,40.3,171.2,40.3
				C169.8,40.3,172.6,40.3,171.2,40.3z M171.2,35.7c-1.1,0-2,0.9-2,2c0,1.1,0.9,2,2,2c1.1,0,2-0.9,2-2
				C173.2,36.6,172.3,35.7,171.2,35.7C170.2,35.8,172.3,35.7,171.2,35.7z"/>
		</g>
	</g>
	<g>
		<g>
			<path class="st1" d="M171.2,59.3c1.2,0,2.3-1,2.3-2.3c0-1.2-1-2.3-2.3-2.3c-1.2,0-2.3,1-2.3,2.3C169,58.3,170,59.3,171.2,59.3z"
				/>
			<path class="st0" d="M171.2,59.6c-1.4,0-2.6-1.1-2.6-2.6s1.1-2.6,2.6-2.6c1.4,0,2.6,1.1,2.6,2.6S172.6,59.6,171.2,59.6
				C169.8,59.6,172.6,59.6,171.2,59.6z M171.2,55.1c-1.1,0-2,0.9-2,2c0,1.1,0.9,2,2,2c1.1,0,2-0.9,2-2
				C173.2,56,172.3,55.1,171.2,55.1C170.2,55.1,172.3,55.1,171.2,55.1z"/>
		</g>
	</g>
	<g>
		<g>
			<path class="st1" d="M171.2,54.2c1.2,0,2.3-1,2.3-2.3c0-1.2-1-2.3-2.3-2.3c-1.2,0-2.3,1-2.3,2.3C169,53.2,170,54.2,171.2,54.2z"
				/>
			<path class="st0" d="M171.2,54.5c-1.4,0-2.6-1.1-2.6-2.6c0-1.4,1.1-2.6,2.6-2.6c1.4,0,2.6,1.1,2.6,2.6
				C173.8,53.3,172.6,54.5,171.2,54.5C169.8,54.5,172.6,54.5,171.2,54.5z M171.2,50c-1.1,0-2,0.9-2,2c0,1.1,0.9,2,2,2
				c1.1,0,2-0.9,2-2C173.2,50.8,172.3,50,171.2,50C170.2,50,172.3,50,171.2,50z"/>
		</g>
	</g>
	<g>
		<g>
			<path class="st1" d="M171.3,64.5c1.2,0,2.3-1,2.3-2.3s-1-2.3-2.3-2.3c-1.2,0-2.3,1-2.3,2.3S170.1,64.5,171.3,64.5z"/>
			<path class="st0" d="M171.3,64.8c-1.4,0-2.6-1.1-2.6-2.6s1.1-2.6,2.6-2.6c1.4,0,2.6,1.1,2.6,2.6S172.7,64.8,171.3,64.8
				C169.9,64.8,172.7,64.8,171.3,64.8z M171.3,60.3c-1.1,0-2,0.9-2,2s0.9,2,2,2c1.1,0,2-0.9,2-2S172.4,60.3,171.3,60.3
				C170.2,60.3,172.4,60.3,171.3,60.3z"/>
		</g>
	</g>
	<g>
		<g>
			<circle class="st1" cx="161.4" cy="43.1" r="2.3"/>
			<path class="st0" d="M161.4,45.6c-1.4,0-2.6-1.1-2.6-2.6s1.1-2.6,2.6-2.6c1.4,0,2.6,1.1,2.6,2.6S162.8,45.6,161.4,45.6
				C160,45.6,162.8,45.6,161.4,45.6z M161.4,41.1c-1.1,0-2,0.9-2,2s0.9,2,2,2c1.1,0,2-0.9,2-2S162.5,41.1,161.4,41.1
				C160.3,41.1,162.5,41.1,161.4,41.1z"/>
		</g>
	</g>
</g>
<g>
	<path class="st2" d="M84.2,75h21.5v6.4H92.2v6.5h12.1v6.4H92.2v6.6h13.9v6.4H84.2V75z"/>
	<path class="st2" d="M112.2,75h6.5l11,15.8l2,3.5h0.4V75h7v32.4h-6.5l-10.9-15.8l-2.1-3.6h-0.4v19.4h-7V75z"/>
	<path class="st2" d="M159.5,107.8c-2.5,0-4.6-0.3-6.3-0.8c-1.7-0.5-3.1-1.4-4.1-2.5c-1.1-1.1-1.8-2.5-2.3-4.1
		c-0.5-1.7-0.7-3.6-0.7-5.8V75h7.9v19.4c0,2.5,0.4,4.2,1.2,5.3c0.8,1.1,2.2,1.6,4.2,1.6c2,0,3.3-0.5,4.2-1.6
		c0.8-1.1,1.2-2.8,1.2-5.3V75h7.9v19.7c0,2.2-0.2,4.2-0.7,5.8c-0.5,1.7-1.2,3-2.3,4.1c-1.1,1.1-2.4,1.9-4.1,2.5
		C164,107.6,161.9,107.8,159.5,107.8z"/>
	<path class="st2" d="M62.6,103.1h-6.1L50,84.3h-0.3l-1.6,23.1h-7.6L43,75h10.5l5.9,18.2L65.7,75h10.4l2.5,32.4h-7.6l-1.7-23.1h-0.3
		L62.6,103.1z"/>
</g>
<g>
	<g>
		<path class="st0" d="M100.6,64.5C100.6,64.5,100.6,64.5,100.6,64.5l-0.4,4.3h3.5l-0.3-2.9C102.4,65.5,101.4,65.1,100.6,64.5z"/>
	</g>
	<g>
		<path class="st0" d="M108.7,59.4c-5.3-1.6-9.3-8.2-9.3-16.2c0-0.9,0.1-1.7,0.2-2.6c-4.2,0.8-7.3,3.7-7.3,7.3
			c0,0.8,0.2,1.5,0.5,2.3l0.2,0.4l-0.4,0.2c-2.3,1.4-3.7,3.5-3.7,5.8c0,4,4.1,7.2,9,7.2c0.9,0,1.9-0.1,2.8-0.3l0.2-0.1l0.2,0.2
			c1.4,1.1,3.2,1.7,5.1,1.7c0.7,0,1.3-0.1,1.9-0.2L108.7,59.4z"/>
	</g>
	<path class="st0" d="M110.8,59.8c-0.3,0-0.7-0.1-1-0.1l-1,9.1h3.5l-0.6-5.3C111.2,62.5,110.9,61.3,110.8,59.8z"/>
	<g>
		<path class="st0" d="M121.1,65.8l-0.6,0l-0.6,0l-0.6,0l-0.5,0c-0.3,0-0.7,0-1,0l-0.4,2.9h5.1l-0.4-2.9
			C121.7,65.8,121.4,65.8,121.1,65.8z"/>
	</g>
	<g>
		<path class="st0" d="M119.5,40.1l0.4-0.5l0.4,0.5c0.1,0.1,0.7,0.9,1.5,2c-0.4-8-5-14.4-10.6-14.4c-5.9,0-10.7,7-10.7,15.5
			c0,8.4,4.6,15.2,10.3,15.5C110.7,51.8,119.2,40.6,119.5,40.1z"/>
	</g>
	<g>
		<path class="st0" d="M113.1,63.5c1.3,1.3,3.6,1.3,6.2,1.3l0.6,0l0.6,0c2.6,0,4.9,0,6.2-1.3c0.9-0.9,1.4-2.5,1.4-4.8
			c0-5.8-6.5-15.2-8.2-17.5c-1.7,2.3-8.2,11.7-8.2,17.5C111.7,61.1,112.2,62.6,113.1,63.5z"/>
	</g>
</g>
</svg>
